# xmcd CD database file
#
# Track frame offsets:
#	150
#	13056
#	28179
#	46274
#	65794
#	78112
#	96108
#	114909
#	131262
#	152522
#	170265
#	190887
#	209738
#
# Disc length: 3044 seconds
#
# Revision: 0
# Processed by: cddbd v1.5PL3 Copyright (c) Steve Scherf et al.
# Submitted via: CDex 1.51
#
DISCID=a50be20d
DTITLE=Silke Hauck - Mellow Blue
DYEAR=2004
DGENRE=Jazz
TTITLE0=God bless the child
TTITLE1=Why must it be you
TTITLE2=When november comes again
TTITLE3=Gonna get over you
TTITLE4=Year of the dragon
TTITLE5=Magic night
TTITLE6=Fallin' in love with you
TTITLE7=Whenever
TTITLE8=Too good to be true
TTITLE9=Cry baby cry
TTITLE10=Too late
TTITLE11=After all
TTITLE12=Who stole the sun
EXTD=YEAR: 2004
EXTT0=
EXTT1=
EXTT2=
EXTT3=
EXTT4=
EXTT5=
EXTT6=
EXTT7=
EXTT8=
EXTT9=
EXTT10=
EXTT11=
EXTT12=
PLAYORDER=
